<mxfile host="app.diagrams.net" modified="2022-03-29T00:35:39.761Z" agent="5.0 (Windows)" etag="BmnNgbkr47na0HOgX-fX" version="17.2.2" type="github">
  <diagram id="C5RBs43oDa-KdzZeNtuy" name="Page-1">
    <mxGraphModel dx="1678" dy="876" grid="1" gridSize="10" guides="1" tooltips="1" connect="1" arrows="1" fold="1" page="1" pageScale="1" pageWidth="2339" pageHeight="3300" background="#F1FAEE" math="0" shadow="0">
      <root>
        <mxCell id="WIyWlLk6GJQsqaUBKTNV-0" />
        <mxCell id="WIyWlLk6GJQsqaUBKTNV-1" parent="WIyWlLk6GJQsqaUBKTNV-0" />
        <mxCell id="WIyWlLk6GJQsqaUBKTNV-3" value="开始" style="rounded=1;whiteSpace=wrap;html=1;fontSize=12;glass=0;strokeWidth=1;shadow=0;fillColor=#A8DADC;strokeColor=#457B9D;fontColor=#1D3557;" parent="WIyWlLk6GJQsqaUBKTNV-1" vertex="1">
          <mxGeometry x="564" y="80" width="120" height="40" as="geometry" />
        </mxCell>
        <mxCell id="WIyWlLk6GJQsqaUBKTNV-6" value="1=1" style="rhombus;whiteSpace=wrap;html=1;shadow=0;fontFamily=Helvetica;fontSize=12;align=center;strokeWidth=1;spacing=6;spacingTop=-4;fillColor=#A8DADC;strokeColor=#457B9D;fontColor=#1D3557;" parent="WIyWlLk6GJQsqaUBKTNV-1" vertex="1">
          <mxGeometry x="564" y="140" width="120" height="40" as="geometry" />
        </mxCell>
        <mxCell id="FsYi8NZGnZM2h-i9JEnJ-3" value="休眠30分钟" style="rounded=0;whiteSpace=wrap;html=1;sketch=0;fontColor=#1D3557;strokeColor=#457B9D;fillColor=#A8DADC;" parent="WIyWlLk6GJQsqaUBKTNV-1" vertex="1">
          <mxGeometry x="1154" y="235" width="120" height="30" as="geometry" />
        </mxCell>
        <mxCell id="FsYi8NZGnZM2h-i9JEnJ-4" value="" style="endArrow=classic;html=1;rounded=1;sketch=0;fontColor=#1D3557;strokeColor=#457B9D;fillColor=#A8DADC;curved=0;entryX=1;entryY=0.5;entryDx=0;entryDy=0;exitX=1;exitY=0.5;exitDx=0;exitDy=0;" parent="WIyWlLk6GJQsqaUBKTNV-1" source="FsYi8NZGnZM2h-i9JEnJ-3" target="WIyWlLk6GJQsqaUBKTNV-6" edge="1">
          <mxGeometry width="50" height="50" relative="1" as="geometry">
            <mxPoint x="684" y="430" as="sourcePoint" />
            <mxPoint x="734" y="380" as="targetPoint" />
            <Array as="points">
              <mxPoint x="1480" y="250" />
              <mxPoint x="1480" y="160" />
            </Array>
          </mxGeometry>
        </mxCell>
        <mxCell id="FsYi8NZGnZM2h-i9JEnJ-14" value="遍历三滤" style="rhombus;whiteSpace=wrap;html=1;rounded=0;sketch=0;fontColor=#ffffff;strokeColor=#432D57;fillColor=#76608a;" parent="WIyWlLk6GJQsqaUBKTNV-1" vertex="1">
          <mxGeometry x="564" y="230" width="120" height="40" as="geometry" />
        </mxCell>
        <mxCell id="FsYi8NZGnZM2h-i9JEnJ-18" value="" style="endArrow=classic;html=1;rounded=1;sketch=0;fontColor=#1D3557;strokeColor=#457B9D;fillColor=#A8DADC;curved=0;entryX=0;entryY=0.5;entryDx=0;entryDy=0;" parent="WIyWlLk6GJQsqaUBKTNV-1" target="FsYi8NZGnZM2h-i9JEnJ-3" edge="1">
          <mxGeometry width="50" height="50" relative="1" as="geometry">
            <mxPoint x="684" y="250" as="sourcePoint" />
            <mxPoint x="1544" y="690" as="targetPoint" />
            <Array as="points" />
          </mxGeometry>
        </mxCell>
        <mxCell id="FsYi8NZGnZM2h-i9JEnJ-60" value="完成遍历" style="edgeLabel;html=1;align=center;verticalAlign=middle;resizable=0;points=[];fontColor=#1D3557;labelBorderColor=default;" parent="FsYi8NZGnZM2h-i9JEnJ-18" vertex="1" connectable="0">
          <mxGeometry x="-0.8018" y="1" relative="1" as="geometry">
            <mxPoint x="182" y="1" as="offset" />
          </mxGeometry>
        </mxCell>
        <mxCell id="FsYi8NZGnZM2h-i9JEnJ-20" value="" style="endArrow=classic;html=1;rounded=1;labelBackgroundColor=default;sketch=0;fontColor=#1D3557;strokeColor=#457B9D;fillColor=#A8DADC;curved=0;entryX=0.5;entryY=0;entryDx=0;entryDy=0;" parent="WIyWlLk6GJQsqaUBKTNV-1" edge="1">
          <mxGeometry width="50" height="50" relative="1" as="geometry">
            <mxPoint x="624" y="270" as="sourcePoint" />
            <mxPoint x="624" y="330" as="targetPoint" />
          </mxGeometry>
        </mxCell>
        <mxCell id="FsYi8NZGnZM2h-i9JEnJ-21" value="遍历车牌" style="rhombus;whiteSpace=wrap;html=1;rounded=0;labelBackgroundColor=none;sketch=0;fontColor=#ffffff;strokeColor=#432D57;fillColor=#76608a;" parent="WIyWlLk6GJQsqaUBKTNV-1" vertex="1">
          <mxGeometry x="564" y="310" width="120" height="40" as="geometry" />
        </mxCell>
        <mxCell id="FsYi8NZGnZM2h-i9JEnJ-23" value="" style="endArrow=classic;html=1;rounded=1;labelBackgroundColor=none;sketch=0;fontColor=#1D3557;strokeColor=#457B9D;fillColor=#A8DADC;curved=0;entryX=0.5;entryY=0;entryDx=0;entryDy=0;" parent="WIyWlLk6GJQsqaUBKTNV-1" target="FsYi8NZGnZM2h-i9JEnJ-14" edge="1">
          <mxGeometry width="50" height="50" relative="1" as="geometry">
            <mxPoint x="624" y="180" as="sourcePoint" />
            <mxPoint x="674" y="130" as="targetPoint" />
          </mxGeometry>
        </mxCell>
        <mxCell id="FsYi8NZGnZM2h-i9JEnJ-30" value="Yes" style="edgeLabel;html=1;align=center;verticalAlign=middle;resizable=0;points=[];fontColor=#1D3557;fontFamily=Times New Roman;labelBorderColor=default;" parent="FsYi8NZGnZM2h-i9JEnJ-23" vertex="1" connectable="0">
          <mxGeometry x="-0.2933" relative="1" as="geometry">
            <mxPoint as="offset" />
          </mxGeometry>
        </mxCell>
        <mxCell id="FsYi8NZGnZM2h-i9JEnJ-24" value="&lt;div align=&quot;justify&quot;&gt;&lt;b&gt;读取influxdb中当前车、当前滤清器：&lt;/b&gt;在当前时刻now至前一天的所有数据&lt;/div&gt;" style="rounded=1;whiteSpace=wrap;html=1;labelBackgroundColor=none;sketch=0;strokeColor=#9673a6;fillColor=#e1d5e7;fontFamily=Times New Roman;glass=0;shadow=0;fontStyle=2;spacingLeft=10;spacingRight=10;" parent="WIyWlLk6GJQsqaUBKTNV-1" vertex="1">
          <mxGeometry x="559" y="390" width="130" height="60" as="geometry" />
        </mxCell>
        <mxCell id="FsYi8NZGnZM2h-i9JEnJ-25" value="数据是否为null" style="rhombus;whiteSpace=wrap;html=1;rounded=0;labelBackgroundColor=none;sketch=0;strokeColor=#23445d;fillColor=#bac8d3;fontFamily=Times New Roman;" parent="WIyWlLk6GJQsqaUBKTNV-1" vertex="1">
          <mxGeometry x="725" y="400" width="120" height="40" as="geometry" />
        </mxCell>
        <mxCell id="FsYi8NZGnZM2h-i9JEnJ-28" value="" style="endArrow=classic;html=1;rounded=1;labelBackgroundColor=none;sketch=0;fontColor=#1D3557;strokeColor=#457B9D;fillColor=#A8DADC;curved=0;exitX=0.5;exitY=0;exitDx=0;exitDy=0;entryX=1;entryY=0.5;entryDx=0;entryDy=0;" parent="WIyWlLk6GJQsqaUBKTNV-1" source="FsYi8NZGnZM2h-i9JEnJ-25" target="FsYi8NZGnZM2h-i9JEnJ-21" edge="1">
          <mxGeometry width="50" height="50" relative="1" as="geometry">
            <mxPoint x="924" y="520" as="sourcePoint" />
            <mxPoint x="974" y="470" as="targetPoint" />
            <Array as="points">
              <mxPoint x="784" y="330" />
            </Array>
          </mxGeometry>
        </mxCell>
        <mxCell id="FsYi8NZGnZM2h-i9JEnJ-29" value="Yes" style="edgeLabel;html=1;align=center;verticalAlign=middle;resizable=0;points=[];fontColor=#1D3557;labelBackgroundColor=default;labelBorderColor=default;fontFamily=Times New Roman;" parent="FsYi8NZGnZM2h-i9JEnJ-28" vertex="1" connectable="0">
          <mxGeometry x="0.0817" y="-2" relative="1" as="geometry">
            <mxPoint x="22" y="32" as="offset" />
          </mxGeometry>
        </mxCell>
        <mxCell id="FsYi8NZGnZM2h-i9JEnJ-31" value="" style="endArrow=classic;html=1;rounded=1;labelBackgroundColor=none;sketch=0;fontColor=#1D3557;strokeColor=#457B9D;fillColor=#A8DADC;curved=0;exitX=0.5;exitY=1;exitDx=0;exitDy=0;entryX=0.5;entryY=0;entryDx=0;entryDy=0;" parent="WIyWlLk6GJQsqaUBKTNV-1" source="FsYi8NZGnZM2h-i9JEnJ-21" target="FsYi8NZGnZM2h-i9JEnJ-24" edge="1">
          <mxGeometry width="50" height="50" relative="1" as="geometry">
            <mxPoint x="844" y="600" as="sourcePoint" />
            <mxPoint x="894" y="550" as="targetPoint" />
          </mxGeometry>
        </mxCell>
        <mxCell id="FsYi8NZGnZM2h-i9JEnJ-32" value="" style="endArrow=classic;html=1;rounded=1;labelBackgroundColor=none;sketch=0;fontColor=#1D3557;strokeColor=#457B9D;fillColor=#A8DADC;curved=0;exitX=1;exitY=0.5;exitDx=0;exitDy=0;" parent="WIyWlLk6GJQsqaUBKTNV-1" source="FsYi8NZGnZM2h-i9JEnJ-24" target="FsYi8NZGnZM2h-i9JEnJ-25" edge="1">
          <mxGeometry width="50" height="50" relative="1" as="geometry">
            <mxPoint x="844" y="600" as="sourcePoint" />
            <mxPoint x="894" y="550" as="targetPoint" />
          </mxGeometry>
        </mxCell>
        <mxCell id="FsYi8NZGnZM2h-i9JEnJ-36" value="&lt;div align=&quot;left&quot;&gt;&lt;b&gt;读取当前结果文件ResultFile.csv，&lt;/b&gt;&lt;/div&gt;&lt;div align=&quot;left&quot;&gt;&lt;b&gt;获取结果文件中当前车、当前滤清器：&lt;/b&gt;&lt;/div&gt;&lt;div align=&quot;left&quot;&gt;初始运行时间time_index_initial&lt;/div&gt;&lt;div align=&quot;left&quot;&gt;初始累计公里数totalleage_initial&lt;/div&gt;&lt;div align=&quot;left&quot;&gt;当前运行时间time_index_now&lt;br&gt;&lt;/div&gt;&lt;div align=&quot;left&quot;&gt;当前累计公里数totalleage_now&lt;/div&gt;&lt;div align=&quot;left&quot;&gt;有效值列表datavalid_list&lt;/div&gt;&lt;div align=&quot;left&quot;&gt;累计公里数列表totalleage_list&lt;/div&gt;&lt;div align=&quot;left&quot;&gt;常用工况work_condition&lt;/div&gt;&lt;div align=&quot;left&quot;&gt;数据累计标志Tag&lt;/div&gt;" style="rounded=1;whiteSpace=wrap;html=1;labelBackgroundColor=none;sketch=0;strokeColor=#9673a6;fillColor=#e1d5e7;align=left;fontFamily=Times New Roman;fontStyle=2;spacingLeft=15;" parent="WIyWlLk6GJQsqaUBKTNV-1" vertex="1">
          <mxGeometry x="640" y="566" width="290" height="150" as="geometry" />
        </mxCell>
        <mxCell id="FsYi8NZGnZM2h-i9JEnJ-37" value="&lt;div align=&quot;left&quot;&gt;&lt;font face=&quot;Times New Roman&quot;&gt;&lt;b&gt;剔除数据中的null值，获取最后一条数据中：&lt;/b&gt;&lt;/font&gt;&lt;/div&gt;&lt;div align=&quot;left&quot;&gt;&lt;font face=&quot;Times New Roman&quot;&gt;最新运行时间time_index_now_i&lt;/font&gt;&lt;/div&gt;&lt;div align=&quot;left&quot;&gt;&lt;font face=&quot;Times New Roman&quot;&gt;&lt;font face=&quot;Times New Roman&quot;&gt;最新&lt;/font&gt;累计公里数totalleage_now_i&lt;/font&gt;&lt;/div&gt;" style="rounded=0;whiteSpace=wrap;html=1;labelBackgroundColor=none;sketch=0;strokeColor=#9673a6;fillColor=#e1d5e7;align=left;fontFamily=Times New Roman;" parent="WIyWlLk6GJQsqaUBKTNV-1" vertex="1">
          <mxGeometry x="665" y="490" width="240" height="50" as="geometry" />
        </mxCell>
        <mxCell id="FsYi8NZGnZM2h-i9JEnJ-39" value="" style="endArrow=classic;html=1;rounded=1;labelBackgroundColor=none;sketch=0;fontColor=#1D3557;strokeColor=#457B9D;fillColor=#A8DADC;curved=0;exitX=0.5;exitY=1;exitDx=0;exitDy=0;" parent="WIyWlLk6GJQsqaUBKTNV-1" source="FsYi8NZGnZM2h-i9JEnJ-25" target="FsYi8NZGnZM2h-i9JEnJ-37" edge="1">
          <mxGeometry width="50" height="50" relative="1" as="geometry">
            <mxPoint x="844" y="630" as="sourcePoint" />
            <mxPoint x="894" y="580" as="targetPoint" />
          </mxGeometry>
        </mxCell>
        <mxCell id="FsYi8NZGnZM2h-i9JEnJ-76" value="No" style="edgeLabel;html=1;align=center;verticalAlign=middle;resizable=0;points=[];fontFamily=Times New Roman;fontColor=#1D3557;labelBorderColor=default;" parent="FsYi8NZGnZM2h-i9JEnJ-39" vertex="1" connectable="0">
          <mxGeometry x="-0.2705" y="1" relative="1" as="geometry">
            <mxPoint as="offset" />
          </mxGeometry>
        </mxCell>
        <mxCell id="FsYi8NZGnZM2h-i9JEnJ-40" value="" style="endArrow=classic;html=1;rounded=1;labelBackgroundColor=none;sketch=0;fontColor=#1D3557;strokeColor=#457B9D;fillColor=#A8DADC;curved=0;exitX=0.5;exitY=1;exitDx=0;exitDy=0;entryX=0.5;entryY=0;entryDx=0;entryDy=0;" parent="WIyWlLk6GJQsqaUBKTNV-1" source="FsYi8NZGnZM2h-i9JEnJ-37" target="FsYi8NZGnZM2h-i9JEnJ-36" edge="1">
          <mxGeometry width="50" height="50" relative="1" as="geometry">
            <mxPoint x="844" y="630" as="sourcePoint" />
            <mxPoint x="894" y="580" as="targetPoint" />
          </mxGeometry>
        </mxCell>
        <mxCell id="FsYi8NZGnZM2h-i9JEnJ-42" value="Tag是否为Flase" style="rhombus;whiteSpace=wrap;html=1;rounded=0;labelBackgroundColor=none;labelBorderColor=none;sketch=0;strokeColor=#23445d;fillColor=#bac8d3;fontFamily=Times New Roman;" parent="WIyWlLk6GJQsqaUBKTNV-1" vertex="1">
          <mxGeometry x="694" y="740" width="180" height="50" as="geometry" />
        </mxCell>
        <mxCell id="FsYi8NZGnZM2h-i9JEnJ-45" value="&lt;font face=&quot;Times New Roman&quot;&gt;totalleage_now_i&lt;/font&gt; - totalleage_initial &amp;lt; 3000" style="rhombus;whiteSpace=wrap;html=1;rounded=0;labelBackgroundColor=none;labelBorderColor=none;sketch=0;strokeColor=#23445d;fillColor=#bac8d3;fontFamily=Times New Roman;" parent="WIyWlLk6GJQsqaUBKTNV-1" vertex="1">
          <mxGeometry x="619" y="830" width="330" height="80" as="geometry" />
        </mxCell>
        <mxCell id="FsYi8NZGnZM2h-i9JEnJ-46" value="" style="endArrow=classic;html=1;rounded=1;labelBackgroundColor=none;sketch=0;fontColor=#1D3557;strokeColor=#457B9D;fillColor=#A8DADC;curved=0;exitX=0.5;exitY=1;exitDx=0;exitDy=0;entryX=0.5;entryY=0;entryDx=0;entryDy=0;" parent="WIyWlLk6GJQsqaUBKTNV-1" source="FsYi8NZGnZM2h-i9JEnJ-36" target="FsYi8NZGnZM2h-i9JEnJ-42" edge="1">
          <mxGeometry width="50" height="50" relative="1" as="geometry">
            <mxPoint x="844" y="730" as="sourcePoint" />
            <mxPoint x="894" y="680" as="targetPoint" />
          </mxGeometry>
        </mxCell>
        <mxCell id="FsYi8NZGnZM2h-i9JEnJ-47" value="" style="endArrow=classic;html=1;rounded=1;labelBackgroundColor=none;sketch=0;fontColor=#1D3557;strokeColor=#457B9D;fillColor=#A8DADC;curved=0;exitX=0.5;exitY=1;exitDx=0;exitDy=0;entryX=0.5;entryY=0;entryDx=0;entryDy=0;" parent="WIyWlLk6GJQsqaUBKTNV-1" source="FsYi8NZGnZM2h-i9JEnJ-42" target="FsYi8NZGnZM2h-i9JEnJ-45" edge="1">
          <mxGeometry width="50" height="50" relative="1" as="geometry">
            <mxPoint x="844" y="730" as="sourcePoint" />
            <mxPoint x="894" y="680" as="targetPoint" />
          </mxGeometry>
        </mxCell>
        <mxCell id="FsYi8NZGnZM2h-i9JEnJ-75" value="False" style="edgeLabel;html=1;align=center;verticalAlign=middle;resizable=0;points=[];fontFamily=Times New Roman;fontColor=#1D3557;labelBorderColor=default;" parent="FsYi8NZGnZM2h-i9JEnJ-47" vertex="1" connectable="0">
          <mxGeometry x="-0.2167" y="-1" relative="1" as="geometry">
            <mxPoint as="offset" />
          </mxGeometry>
        </mxCell>
        <mxCell id="FsYi8NZGnZM2h-i9JEnJ-48" value="&lt;div&gt;&lt;b&gt;更改结果文件，将当前车、当前滤清器：&lt;/b&gt;&lt;/div&gt;&lt;div&gt;time_index_now = time_index_now_i&lt;/div&gt;&lt;div&gt;&lt;font face=&quot;Times New Roman&quot;&gt;totalleage_now&lt;/font&gt; = &lt;font face=&quot;Times New Roman&quot;&gt;totalleage_now_i&lt;/font&gt;&lt;/div&gt;&lt;div&gt;rul = “Data is accumulation!”&lt;/div&gt;&lt;div&gt;&lt;b&gt;保存结果文件&lt;/b&gt;&lt;b&gt;ResultFile.csv&lt;/b&gt;&lt;/div&gt;" style="rounded=0;whiteSpace=wrap;html=1;labelBackgroundColor=none;labelBorderColor=none;sketch=0;strokeColor=#82b366;fillColor=#d5e8d4;align=left;fontFamily=Times New Roman;" parent="WIyWlLk6GJQsqaUBKTNV-1" vertex="1">
          <mxGeometry x="659" y="950" width="250" height="80" as="geometry" />
        </mxCell>
        <mxCell id="FsYi8NZGnZM2h-i9JEnJ-51" value="" style="endArrow=classic;html=1;rounded=1;labelBackgroundColor=none;sketch=0;fontColor=#1D3557;strokeColor=#457B9D;fillColor=#A8DADC;curved=0;exitX=0.5;exitY=1;exitDx=0;exitDy=0;" parent="WIyWlLk6GJQsqaUBKTNV-1" source="FsYi8NZGnZM2h-i9JEnJ-45" target="FsYi8NZGnZM2h-i9JEnJ-48" edge="1">
          <mxGeometry width="50" height="50" relative="1" as="geometry">
            <mxPoint x="814" y="850" as="sourcePoint" />
            <mxPoint x="864" y="800" as="targetPoint" />
          </mxGeometry>
        </mxCell>
        <mxCell id="FsYi8NZGnZM2h-i9JEnJ-53" value="Yes" style="edgeLabel;html=1;align=center;verticalAlign=middle;resizable=0;points=[];fontColor=#1D3557;fontFamily=Times New Roman;labelBorderColor=default;" parent="FsYi8NZGnZM2h-i9JEnJ-51" vertex="1" connectable="0">
          <mxGeometry x="-0.3496" relative="1" as="geometry">
            <mxPoint y="4" as="offset" />
          </mxGeometry>
        </mxCell>
        <mxCell id="FsYi8NZGnZM2h-i9JEnJ-52" value="" style="endArrow=classic;html=1;rounded=1;labelBackgroundColor=none;sketch=0;fontColor=#1D3557;strokeColor=#457B9D;fillColor=#A8DADC;curved=0;exitX=1;exitY=0.5;exitDx=0;exitDy=0;entryX=1;entryY=0.5;entryDx=0;entryDy=0;" parent="WIyWlLk6GJQsqaUBKTNV-1" source="FsYi8NZGnZM2h-i9JEnJ-48" target="FsYi8NZGnZM2h-i9JEnJ-21" edge="1">
          <mxGeometry width="50" height="50" relative="1" as="geometry">
            <mxPoint x="913" y="1009" as="sourcePoint" />
            <mxPoint x="688" y="349" as="targetPoint" />
            <Array as="points">
              <mxPoint x="1200" y="990" />
              <mxPoint x="1200" y="330" />
            </Array>
          </mxGeometry>
        </mxCell>
        <mxCell id="FsYi8NZGnZM2h-i9JEnJ-57" value="&lt;div align=&quot;left&quot;&gt;&lt;b&gt;读取当前车、当前滤清器：&lt;/b&gt;&lt;font face=&quot;Times New Roman&quot;&gt;time_index_now_i&lt;/font&gt;至time_index_initial的所有数据，剔除null值&lt;/div&gt;" style="rounded=1;whiteSpace=wrap;html=1;labelBackgroundColor=none;labelBorderColor=none;sketch=0;strokeColor=#9673a6;fillColor=#e1d5e7;align=left;fontFamily=Times New Roman;fontStyle=2;spacingLeft=10;spacingRight=5;" parent="WIyWlLk6GJQsqaUBKTNV-1" vertex="1">
          <mxGeometry x="655.25" y="1060" width="257.5" height="50" as="geometry" />
        </mxCell>
        <mxCell id="FsYi8NZGnZM2h-i9JEnJ-58" value="" style="endArrow=classic;html=1;rounded=1;labelBackgroundColor=none;sketch=0;fontColor=#1D3557;strokeColor=#457B9D;fillColor=#A8DADC;curved=0;entryX=0;entryY=0.5;entryDx=0;entryDy=0;exitX=0;exitY=0.5;exitDx=0;exitDy=0;" parent="WIyWlLk6GJQsqaUBKTNV-1" source="FsYi8NZGnZM2h-i9JEnJ-45" target="FsYi8NZGnZM2h-i9JEnJ-57" edge="1">
          <mxGeometry width="50" height="50" relative="1" as="geometry">
            <mxPoint x="954" y="870" as="sourcePoint" />
            <mxPoint x="999" y="810" as="targetPoint" />
            <Array as="points">
              <mxPoint x="550" y="870" />
              <mxPoint x="550" y="1085" />
            </Array>
          </mxGeometry>
        </mxCell>
        <mxCell id="FsYi8NZGnZM2h-i9JEnJ-59" value="No" style="edgeLabel;html=1;align=center;verticalAlign=middle;resizable=0;points=[];fontColor=#1D3557;fontFamily=Times New Roman;labelBorderColor=default;" parent="FsYi8NZGnZM2h-i9JEnJ-58" vertex="1" connectable="0">
          <mxGeometry x="-0.3789" y="-2" relative="1" as="geometry">
            <mxPoint x="2" y="61" as="offset" />
          </mxGeometry>
        </mxCell>
        <mxCell id="FsYi8NZGnZM2h-i9JEnJ-61" value="通过该数据获取常用工况&lt;font face=&quot;Times New Roman&quot;&gt;WC&lt;/font&gt;" style="rounded=0;whiteSpace=wrap;html=1;labelBackgroundColor=none;labelBorderColor=none;sketch=0;strokeColor=#9673a6;fillColor=#e1d5e7;" parent="WIyWlLk6GJQsqaUBKTNV-1" vertex="1">
          <mxGeometry x="1120" y="1060" width="176" height="50" as="geometry" />
        </mxCell>
        <mxCell id="FsYi8NZGnZM2h-i9JEnJ-62" value="&lt;div align=&quot;left&quot;&gt;&lt;b&gt;通过该数据，结合常用工况&lt;/b&gt;&lt;b&gt;&lt;font face=&quot;Times New Roman&quot;&gt;WC&lt;/font&gt;获取:&lt;/b&gt;&lt;/div&gt;&lt;div align=&quot;left&quot;&gt;有效值列表dv_list&lt;/div&gt;&lt;div align=&quot;left&quot;&gt;累计公里数列表t_list&lt;/div&gt;&lt;div align=&quot;left&quot;&gt;&lt;font face=&quot;Times New Roman&quot;&gt;最新&lt;/font&gt;运行时间time_index_now_new&lt;/div&gt;&lt;div align=&quot;left&quot;&gt;&lt;font face=&quot;Times New Roman&quot;&gt;最新&lt;/font&gt;累计公里数totalleage_now_new&lt;br&gt;&lt;/div&gt;" style="rounded=0;whiteSpace=wrap;html=1;labelBackgroundColor=none;labelBorderColor=none;sketch=0;fontFamily=Times New Roman;strokeColor=#9673a6;fillColor=#e1d5e7;align=left;" parent="WIyWlLk6GJQsqaUBKTNV-1" vertex="1">
          <mxGeometry x="1102" y="1150" width="212" height="80" as="geometry" />
        </mxCell>
        <mxCell id="FsYi8NZGnZM2h-i9JEnJ-63" value="&lt;div align=&quot;left&quot;&gt;&lt;b&gt;通过有效值列表和累计公里数列表计算：&lt;/b&gt;&lt;/div&gt;&lt;div align=&quot;left&quot;&gt;剩余寿命R&lt;/div&gt;&lt;div align=&quot;left&quot;&gt;寿命预警R_warn&lt;br&gt;&lt;/div&gt;" style="rounded=0;whiteSpace=wrap;html=1;labelBackgroundColor=none;labelBorderColor=none;sketch=0;fontFamily=Times New Roman;strokeColor=#9673a6;fillColor=#e1d5e7;" parent="WIyWlLk6GJQsqaUBKTNV-1" vertex="1">
          <mxGeometry x="1096.75" y="1260" width="222.5" height="60" as="geometry" />
        </mxCell>
        <mxCell id="FsYi8NZGnZM2h-i9JEnJ-64" value="" style="endArrow=classic;html=1;rounded=1;labelBackgroundColor=none;sketch=0;fontFamily=Times New Roman;fontColor=#1D3557;strokeColor=#457B9D;fillColor=#A8DADC;curved=0;exitX=1;exitY=0.5;exitDx=0;exitDy=0;" parent="WIyWlLk6GJQsqaUBKTNV-1" source="FsYi8NZGnZM2h-i9JEnJ-94" target="FsYi8NZGnZM2h-i9JEnJ-61" edge="1">
          <mxGeometry width="50" height="50" relative="1" as="geometry">
            <mxPoint x="994" y="1100" as="sourcePoint" />
            <mxPoint x="1044" y="1050" as="targetPoint" />
          </mxGeometry>
        </mxCell>
        <mxCell id="FsYi8NZGnZM2h-i9JEnJ-65" value="" style="endArrow=classic;html=1;rounded=1;labelBackgroundColor=none;sketch=0;fontFamily=Times New Roman;fontColor=#1D3557;strokeColor=#457B9D;fillColor=#A8DADC;curved=0;exitX=0.5;exitY=1;exitDx=0;exitDy=0;" parent="WIyWlLk6GJQsqaUBKTNV-1" source="FsYi8NZGnZM2h-i9JEnJ-61" target="FsYi8NZGnZM2h-i9JEnJ-62" edge="1">
          <mxGeometry width="50" height="50" relative="1" as="geometry">
            <mxPoint x="994" y="1100" as="sourcePoint" />
            <mxPoint x="1044" y="1050" as="targetPoint" />
          </mxGeometry>
        </mxCell>
        <mxCell id="FsYi8NZGnZM2h-i9JEnJ-66" value="" style="endArrow=classic;html=1;rounded=1;labelBackgroundColor=none;sketch=0;fontFamily=Times New Roman;fontColor=#1D3557;strokeColor=#457B9D;fillColor=#A8DADC;curved=0;exitX=0.5;exitY=1;exitDx=0;exitDy=0;entryX=0.5;entryY=0;entryDx=0;entryDy=0;" parent="WIyWlLk6GJQsqaUBKTNV-1" source="FsYi8NZGnZM2h-i9JEnJ-62" target="FsYi8NZGnZM2h-i9JEnJ-63" edge="1">
          <mxGeometry width="50" height="50" relative="1" as="geometry">
            <mxPoint x="994" y="1100" as="sourcePoint" />
            <mxPoint x="1044" y="1050" as="targetPoint" />
          </mxGeometry>
        </mxCell>
        <mxCell id="FsYi8NZGnZM2h-i9JEnJ-67" value="Tag_new = True" style="rounded=0;whiteSpace=wrap;html=1;labelBackgroundColor=none;labelBorderColor=none;sketch=0;fontFamily=Times New Roman;strokeColor=#9673a6;fillColor=#e1d5e7;" parent="WIyWlLk6GJQsqaUBKTNV-1" vertex="1">
          <mxGeometry x="940" y="1275" width="110" height="30" as="geometry" />
        </mxCell>
        <mxCell id="FsYi8NZGnZM2h-i9JEnJ-68" value="" style="endArrow=classic;html=1;rounded=1;labelBackgroundColor=none;sketch=0;fontFamily=Times New Roman;fontColor=#1D3557;strokeColor=#457B9D;fillColor=#A8DADC;curved=0;exitX=0;exitY=0.5;exitDx=0;exitDy=0;" parent="WIyWlLk6GJQsqaUBKTNV-1" source="FsYi8NZGnZM2h-i9JEnJ-63" target="FsYi8NZGnZM2h-i9JEnJ-67" edge="1">
          <mxGeometry width="50" height="50" relative="1" as="geometry">
            <mxPoint x="994" y="1210" as="sourcePoint" />
            <mxPoint x="1044" y="1160" as="targetPoint" />
          </mxGeometry>
        </mxCell>
        <mxCell id="FsYi8NZGnZM2h-i9JEnJ-69" value="&lt;div&gt;&lt;b&gt;更改结果文件，将当前车、当前滤清器：&lt;/b&gt;&lt;/div&gt;&lt;div&gt;time_index_now = time_index_now_new&lt;/div&gt;&lt;div&gt;&lt;font face=&quot;Times New Roman&quot;&gt;totalleage_now&lt;/font&gt; = &lt;font face=&quot;Times New Roman&quot;&gt;totalleage_now&lt;/font&gt;_new&lt;/div&gt;&lt;div&gt;datavalid_list = dv_list&lt;br&gt;&lt;/div&gt;&lt;div&gt;&lt;font face=&quot;Times New Roman&quot;&gt;totalleage&lt;/font&gt;_list = t_list&lt;br&gt;&lt;/div&gt;&lt;div&gt;rul = R&lt;/div&gt;&lt;div&gt;rul_warning = R_warn&lt;br&gt;&lt;/div&gt;&lt;div&gt;working_condition = WC&lt;br&gt;&lt;/div&gt;&lt;div&gt;Tag = Tag_new &lt;/div&gt;&lt;div&gt;&lt;b&gt;保存结果文件&lt;/b&gt;&lt;b&gt;ResultFile.csv&lt;/b&gt;&lt;/div&gt;" style="rounded=0;whiteSpace=wrap;html=1;labelBackgroundColor=none;labelBorderColor=none;sketch=0;strokeColor=#82b366;fillColor=#d5e8d4;align=left;fontFamily=Times New Roman;" parent="WIyWlLk6GJQsqaUBKTNV-1" vertex="1">
          <mxGeometry x="659" y="1215" width="250" height="150" as="geometry" />
        </mxCell>
        <mxCell id="FsYi8NZGnZM2h-i9JEnJ-73" value="" style="endArrow=classic;html=1;rounded=1;labelBackgroundColor=none;sketch=0;fontFamily=Times New Roman;fontColor=#1D3557;strokeColor=#457B9D;fillColor=#A8DADC;curved=0;exitX=0;exitY=0.5;exitDx=0;exitDy=0;" parent="WIyWlLk6GJQsqaUBKTNV-1" source="FsYi8NZGnZM2h-i9JEnJ-67" target="FsYi8NZGnZM2h-i9JEnJ-69" edge="1">
          <mxGeometry width="50" height="50" relative="1" as="geometry">
            <mxPoint x="854" y="1610" as="sourcePoint" />
            <mxPoint x="904" y="1560" as="targetPoint" />
          </mxGeometry>
        </mxCell>
        <mxCell id="FsYi8NZGnZM2h-i9JEnJ-74" value="" style="endArrow=classic;html=1;rounded=1;labelBackgroundColor=none;sketch=0;fontFamily=Times New Roman;fontColor=#1D3557;strokeColor=#457B9D;fillColor=#A8DADC;curved=0;exitX=0.5;exitY=1;exitDx=0;exitDy=0;" parent="WIyWlLk6GJQsqaUBKTNV-1" source="FsYi8NZGnZM2h-i9JEnJ-69" edge="1">
          <mxGeometry width="50" height="50" relative="1" as="geometry">
            <mxPoint x="734" y="1090" as="sourcePoint" />
            <mxPoint x="684" y="330" as="targetPoint" />
            <Array as="points">
              <mxPoint x="784" y="1400" />
              <mxPoint x="1360" y="1400" />
              <mxPoint x="1360" y="330" />
            </Array>
          </mxGeometry>
        </mxCell>
        <mxCell id="FsYi8NZGnZM2h-i9JEnJ-77" value="" style="endArrow=classic;html=1;rounded=1;labelBackgroundColor=none;sketch=0;fontFamily=Times New Roman;fontColor=#1D3557;strokeColor=#457B9D;fillColor=#A8DADC;curved=0;exitX=0;exitY=0.5;exitDx=0;exitDy=0;entryX=0;entryY=0.5;entryDx=0;entryDy=0;" parent="WIyWlLk6GJQsqaUBKTNV-1" source="FsYi8NZGnZM2h-i9JEnJ-21" target="FsYi8NZGnZM2h-i9JEnJ-14" edge="1">
          <mxGeometry width="50" height="50" relative="1" as="geometry">
            <mxPoint x="1054" y="530" as="sourcePoint" />
            <mxPoint x="1104" y="480" as="targetPoint" />
            <Array as="points">
              <mxPoint x="40" y="330" />
              <mxPoint x="40" y="250" />
            </Array>
          </mxGeometry>
        </mxCell>
        <mxCell id="FsYi8NZGnZM2h-i9JEnJ-78" value="完成遍历" style="edgeLabel;html=1;align=center;verticalAlign=middle;resizable=0;points=[];fontFamily=Times New Roman;fontColor=#1D3557;labelBorderColor=default;" parent="FsYi8NZGnZM2h-i9JEnJ-77" vertex="1" connectable="0">
          <mxGeometry x="0.0964" y="1" relative="1" as="geometry">
            <mxPoint x="225" y="81" as="offset" />
          </mxGeometry>
        </mxCell>
        <mxCell id="FsYi8NZGnZM2h-i9JEnJ-84" value="&lt;font face=&quot;Times New Roman&quot;&gt;totalleage_now_i &lt;/font&gt;-&lt;font face=&quot;Times New Roman&quot;&gt; totalleage_now&lt;/font&gt; &amp;gt;= 100" style="rhombus;whiteSpace=wrap;html=1;rounded=0;labelBackgroundColor=none;labelBorderColor=none;sketch=0;fontFamily=Times New Roman;strokeColor=#23445d;fillColor=#bac8d3;" parent="WIyWlLk6GJQsqaUBKTNV-1" vertex="1">
          <mxGeometry x="170" y="725" width="290" height="80" as="geometry" />
        </mxCell>
        <mxCell id="FsYi8NZGnZM2h-i9JEnJ-85" value="" style="endArrow=classic;html=1;rounded=1;labelBackgroundColor=none;sketch=0;fontFamily=Times New Roman;fontColor=#1D3557;strokeColor=#457B9D;fillColor=#A8DADC;curved=0;exitX=0;exitY=0.5;exitDx=0;exitDy=0;entryX=1;entryY=0.5;entryDx=0;entryDy=0;" parent="WIyWlLk6GJQsqaUBKTNV-1" source="FsYi8NZGnZM2h-i9JEnJ-42" target="FsYi8NZGnZM2h-i9JEnJ-84" edge="1">
          <mxGeometry width="50" height="50" relative="1" as="geometry">
            <mxPoint x="850" y="960" as="sourcePoint" />
            <mxPoint x="900" y="910" as="targetPoint" />
          </mxGeometry>
        </mxCell>
        <mxCell id="FsYi8NZGnZM2h-i9JEnJ-86" value="True" style="edgeLabel;html=1;align=center;verticalAlign=middle;resizable=0;points=[];fontFamily=Times New Roman;fontColor=#1D3557;labelBorderColor=default;" parent="FsYi8NZGnZM2h-i9JEnJ-85" vertex="1" connectable="0">
          <mxGeometry x="-0.0882" y="3" relative="1" as="geometry">
            <mxPoint x="-9" y="-3" as="offset" />
          </mxGeometry>
        </mxCell>
        <mxCell id="FsYi8NZGnZM2h-i9JEnJ-89" value="" style="endArrow=classic;html=1;rounded=1;labelBackgroundColor=none;sketch=0;fontFamily=Times New Roman;fontColor=#1D3557;strokeColor=#457B9D;fillColor=#A8DADC;curved=0;exitX=0.492;exitY=1.006;exitDx=0;exitDy=0;exitPerimeter=0;" parent="WIyWlLk6GJQsqaUBKTNV-1" source="WIyWlLk6GJQsqaUBKTNV-3" target="WIyWlLk6GJQsqaUBKTNV-6" edge="1">
          <mxGeometry width="50" height="50" relative="1" as="geometry">
            <mxPoint x="640" y="190" as="sourcePoint" />
            <mxPoint x="690" y="140" as="targetPoint" />
          </mxGeometry>
        </mxCell>
        <mxCell id="FsYi8NZGnZM2h-i9JEnJ-92" value="&lt;div align=&quot;left&quot;&gt;&lt;b&gt;读取当前车、当前滤清器：&lt;/b&gt;&lt;font face=&quot;Times New Roman&quot;&gt;time_index_now_i&lt;/font&gt;至time_index_now的所有数据&lt;/div&gt;" style="rounded=1;whiteSpace=wrap;html=1;labelBackgroundColor=none;labelBorderColor=none;sketch=0;fontFamily=Times New Roman;strokeColor=#9673a6;fillColor=#e1d5e7;align=left;fontStyle=2;spacingLeft=10;spacingRight=10;" parent="WIyWlLk6GJQsqaUBKTNV-1" vertex="1">
          <mxGeometry x="175" y="845" width="280" height="50" as="geometry" />
        </mxCell>
        <mxCell id="FsYi8NZGnZM2h-i9JEnJ-94" value="&lt;div align=&quot;left&quot;&gt;根据“累计公里数”字段添加“累计公里数_100”字段&lt;br&gt;&lt;/div&gt;" style="rounded=0;whiteSpace=wrap;html=1;labelBackgroundColor=none;labelBorderColor=none;sketch=0;fontFamily=Times New Roman;strokeColor=#9673a6;fillColor=#e1d5e7;" parent="WIyWlLk6GJQsqaUBKTNV-1" vertex="1">
          <mxGeometry x="936.75" y="1060" width="160" height="50" as="geometry" />
        </mxCell>
        <mxCell id="FsYi8NZGnZM2h-i9JEnJ-96" value="" style="endArrow=classic;html=1;rounded=1;labelBackgroundColor=none;sketch=0;fontFamily=Times New Roman;fontColor=#1D3557;strokeColor=#457B9D;fillColor=#A8DADC;curved=0;exitX=1;exitY=0.5;exitDx=0;exitDy=0;entryX=0;entryY=0.5;entryDx=0;entryDy=0;" parent="WIyWlLk6GJQsqaUBKTNV-1" source="FsYi8NZGnZM2h-i9JEnJ-57" target="FsYi8NZGnZM2h-i9JEnJ-94" edge="1">
          <mxGeometry width="50" height="50" relative="1" as="geometry">
            <mxPoint x="890" y="1240" as="sourcePoint" />
            <mxPoint x="940" y="1190" as="targetPoint" />
          </mxGeometry>
        </mxCell>
        <mxCell id="FsYi8NZGnZM2h-i9JEnJ-97" value="&lt;div align=&quot;left&quot;&gt;根据“累计公里数”字段添加“累计公里数_100”字段&lt;br&gt;&lt;/div&gt;" style="rounded=0;whiteSpace=wrap;html=1;labelBackgroundColor=none;labelBorderColor=none;sketch=0;fontFamily=Times New Roman;strokeColor=#9673a6;fillColor=#e1d5e7;" parent="WIyWlLk6GJQsqaUBKTNV-1" vertex="1">
          <mxGeometry x="235" y="930" width="160" height="50" as="geometry" />
        </mxCell>
        <mxCell id="FsYi8NZGnZM2h-i9JEnJ-98" value="" style="endArrow=classic;html=1;rounded=1;labelBackgroundColor=none;sketch=0;fontFamily=Times New Roman;fontColor=#1D3557;strokeColor=#457B9D;fillColor=#A8DADC;curved=0;exitX=0.5;exitY=1;exitDx=0;exitDy=0;" parent="WIyWlLk6GJQsqaUBKTNV-1" source="FsYi8NZGnZM2h-i9JEnJ-84" target="FsYi8NZGnZM2h-i9JEnJ-92" edge="1">
          <mxGeometry width="50" height="50" relative="1" as="geometry">
            <mxPoint x="830" y="900" as="sourcePoint" />
            <mxPoint x="880" y="850" as="targetPoint" />
          </mxGeometry>
        </mxCell>
        <mxCell id="FsYi8NZGnZM2h-i9JEnJ-110" value="Yes" style="edgeLabel;html=1;align=center;verticalAlign=middle;resizable=0;points=[];fontFamily=Times New Roman;fontColor=#1D3557;labelBorderColor=default;" parent="FsYi8NZGnZM2h-i9JEnJ-98" vertex="1" connectable="0">
          <mxGeometry x="-0.4738" y="-1" relative="1" as="geometry">
            <mxPoint y="5" as="offset" />
          </mxGeometry>
        </mxCell>
        <mxCell id="FsYi8NZGnZM2h-i9JEnJ-99" value="" style="endArrow=classic;html=1;rounded=1;labelBackgroundColor=none;sketch=0;fontFamily=Times New Roman;fontColor=#1D3557;strokeColor=#457B9D;fillColor=#A8DADC;curved=0;exitX=0.5;exitY=1;exitDx=0;exitDy=0;entryX=0.5;entryY=0;entryDx=0;entryDy=0;" parent="WIyWlLk6GJQsqaUBKTNV-1" source="FsYi8NZGnZM2h-i9JEnJ-92" target="FsYi8NZGnZM2h-i9JEnJ-97" edge="1">
          <mxGeometry width="50" height="50" relative="1" as="geometry">
            <mxPoint x="640" y="890" as="sourcePoint" />
            <mxPoint x="690" y="840" as="targetPoint" />
          </mxGeometry>
        </mxCell>
        <mxCell id="FsYi8NZGnZM2h-i9JEnJ-100" value="&lt;div align=&quot;left&quot;&gt;&lt;b&gt;通过该数据，结合常用工况&lt;/b&gt;&lt;b&gt;work_condition获取:&lt;/b&gt;&lt;/div&gt;&lt;div align=&quot;left&quot;&gt;有效值列表dv_list&lt;/div&gt;&lt;div align=&quot;left&quot;&gt;累计公里数列表t_list&lt;/div&gt;&lt;div align=&quot;left&quot;&gt;&lt;font face=&quot;Times New Roman&quot;&gt;最新&lt;/font&gt;运行时间time_index_now_new&lt;/div&gt;&lt;div align=&quot;left&quot;&gt;&lt;font face=&quot;Times New Roman&quot;&gt;最新&lt;/font&gt;累计公里数totalleage_now_new&lt;br&gt;&lt;/div&gt;" style="rounded=0;whiteSpace=wrap;html=1;labelBackgroundColor=none;labelBorderColor=none;sketch=0;fontFamily=Times New Roman;strokeColor=#9673a6;fillColor=#e1d5e7;align=left;" parent="WIyWlLk6GJQsqaUBKTNV-1" vertex="1">
          <mxGeometry x="180" y="1010" width="270" height="80" as="geometry" />
        </mxCell>
        <mxCell id="FsYi8NZGnZM2h-i9JEnJ-101" value="&lt;div&gt;将dv_list新增于datavalid_list形成dv_list_new&lt;/div&gt;&lt;div&gt;将t_list新增于totalleage_list形成t_list_new&lt;br&gt;&lt;/div&gt;" style="rounded=0;whiteSpace=wrap;html=1;labelBackgroundColor=none;labelBorderColor=none;sketch=0;fontFamily=Times New Roman;strokeColor=#9673a6;fillColor=#e1d5e7;align=left;" parent="WIyWlLk6GJQsqaUBKTNV-1" vertex="1">
          <mxGeometry x="190" y="1120" width="250" height="40" as="geometry" />
        </mxCell>
        <mxCell id="FsYi8NZGnZM2h-i9JEnJ-102" value="&lt;div align=&quot;left&quot;&gt;&lt;b&gt;通过&lt;/b&gt;&lt;b&gt;dv_list_new和&lt;/b&gt;&lt;b&gt;t_list_new计算：&lt;/b&gt;&lt;/div&gt;&lt;div align=&quot;left&quot;&gt;剩余寿命R&lt;/div&gt;&lt;div align=&quot;left&quot;&gt;寿命预警R_warn&lt;br&gt;&lt;/div&gt;" style="rounded=0;whiteSpace=wrap;html=1;labelBackgroundColor=none;labelBorderColor=none;sketch=0;fontFamily=Times New Roman;strokeColor=#9673a6;fillColor=#e1d5e7;" parent="WIyWlLk6GJQsqaUBKTNV-1" vertex="1">
          <mxGeometry x="215" y="1190" width="200" height="50" as="geometry" />
        </mxCell>
        <mxCell id="FsYi8NZGnZM2h-i9JEnJ-103" value="&lt;div&gt;&lt;b&gt;更改结果文件，将当前车、当前滤清器：&lt;/b&gt;&lt;/div&gt;&lt;div&gt;time_index_now = time_index_now_new&lt;/div&gt;&lt;div&gt;&lt;font face=&quot;Times New Roman&quot;&gt;totalleage_now&lt;/font&gt; = &lt;font face=&quot;Times New Roman&quot;&gt;totalleage_now&lt;/font&gt;_new&lt;/div&gt;&lt;div&gt;datavalid_list = dv_list_new&lt;br&gt;&lt;/div&gt;&lt;div&gt;&lt;font face=&quot;Times New Roman&quot;&gt;totalleage&lt;/font&gt;_list = t_list_new&lt;br&gt;&lt;/div&gt;&lt;div&gt;rul = R&lt;/div&gt;rul_warning = R_warn&lt;div&gt;&lt;b&gt;保存结果文件&lt;/b&gt;&lt;b&gt;ResultFile.csv&lt;/b&gt;&lt;/div&gt;" style="rounded=0;whiteSpace=wrap;html=1;labelBackgroundColor=none;labelBorderColor=none;sketch=0;strokeColor=#82b366;fillColor=#d5e8d4;align=left;fontFamily=Times New Roman;" parent="WIyWlLk6GJQsqaUBKTNV-1" vertex="1">
          <mxGeometry x="190" y="1275" width="250" height="125" as="geometry" />
        </mxCell>
        <mxCell id="FsYi8NZGnZM2h-i9JEnJ-104" value="" style="endArrow=classic;html=1;rounded=1;labelBackgroundColor=none;sketch=0;fontFamily=Times New Roman;fontColor=#1D3557;strokeColor=#457B9D;fillColor=#A8DADC;curved=0;exitX=0.5;exitY=1;exitDx=0;exitDy=0;" parent="WIyWlLk6GJQsqaUBKTNV-1" source="FsYi8NZGnZM2h-i9JEnJ-97" target="FsYi8NZGnZM2h-i9JEnJ-100" edge="1">
          <mxGeometry width="50" height="50" relative="1" as="geometry">
            <mxPoint x="610" y="1190" as="sourcePoint" />
            <mxPoint x="660" y="1140" as="targetPoint" />
          </mxGeometry>
        </mxCell>
        <mxCell id="FsYi8NZGnZM2h-i9JEnJ-105" value="" style="endArrow=classic;html=1;rounded=1;labelBackgroundColor=none;sketch=0;fontFamily=Times New Roman;fontColor=#1D3557;strokeColor=#457B9D;fillColor=#A8DADC;curved=0;exitX=0.5;exitY=1;exitDx=0;exitDy=0;" parent="WIyWlLk6GJQsqaUBKTNV-1" source="FsYi8NZGnZM2h-i9JEnJ-100" target="FsYi8NZGnZM2h-i9JEnJ-101" edge="1">
          <mxGeometry width="50" height="50" relative="1" as="geometry">
            <mxPoint x="590" y="1190" as="sourcePoint" />
            <mxPoint x="640" y="1140" as="targetPoint" />
          </mxGeometry>
        </mxCell>
        <mxCell id="FsYi8NZGnZM2h-i9JEnJ-106" value="" style="endArrow=classic;html=1;rounded=1;labelBackgroundColor=none;sketch=0;fontFamily=Times New Roman;fontColor=#1D3557;strokeColor=#457B9D;fillColor=#A8DADC;curved=0;exitX=0.5;exitY=1;exitDx=0;exitDy=0;" parent="WIyWlLk6GJQsqaUBKTNV-1" source="FsYi8NZGnZM2h-i9JEnJ-101" target="FsYi8NZGnZM2h-i9JEnJ-102" edge="1">
          <mxGeometry width="50" height="50" relative="1" as="geometry">
            <mxPoint x="590" y="1190" as="sourcePoint" />
            <mxPoint x="640" y="1140" as="targetPoint" />
          </mxGeometry>
        </mxCell>
        <mxCell id="FsYi8NZGnZM2h-i9JEnJ-107" value="" style="endArrow=classic;html=1;rounded=1;labelBackgroundColor=none;sketch=0;fontFamily=Times New Roman;fontColor=#1D3557;strokeColor=#457B9D;fillColor=#A8DADC;curved=0;exitX=0.5;exitY=1;exitDx=0;exitDy=0;entryX=0.5;entryY=0;entryDx=0;entryDy=0;" parent="WIyWlLk6GJQsqaUBKTNV-1" source="FsYi8NZGnZM2h-i9JEnJ-102" target="FsYi8NZGnZM2h-i9JEnJ-103" edge="1">
          <mxGeometry width="50" height="50" relative="1" as="geometry">
            <mxPoint x="590" y="1190" as="sourcePoint" />
            <mxPoint x="640" y="1140" as="targetPoint" />
          </mxGeometry>
        </mxCell>
        <mxCell id="FsYi8NZGnZM2h-i9JEnJ-108" value="" style="endArrow=classic;html=1;rounded=1;labelBackgroundColor=none;sketch=0;fontFamily=Times New Roman;fontColor=#1D3557;strokeColor=#457B9D;fillColor=#A8DADC;curved=0;exitX=0.5;exitY=1;exitDx=0;exitDy=0;entryX=1;entryY=0.5;entryDx=0;entryDy=0;" parent="WIyWlLk6GJQsqaUBKTNV-1" source="FsYi8NZGnZM2h-i9JEnJ-103" target="FsYi8NZGnZM2h-i9JEnJ-21" edge="1">
          <mxGeometry width="50" height="50" relative="1" as="geometry">
            <mxPoint x="650" y="1150" as="sourcePoint" />
            <mxPoint x="690" y="350" as="targetPoint" />
            <Array as="points">
              <mxPoint x="315" y="1440" />
              <mxPoint x="1440" y="1440" />
              <mxPoint x="1440" y="330" />
            </Array>
          </mxGeometry>
        </mxCell>
        <mxCell id="FsYi8NZGnZM2h-i9JEnJ-109" value="" style="endArrow=classic;html=1;rounded=1;labelBackgroundColor=none;sketch=0;fontFamily=Times New Roman;fontColor=#1D3557;strokeColor=#457B9D;fillColor=#A8DADC;curved=0;exitX=0;exitY=0.5;exitDx=0;exitDy=0;entryX=1;entryY=0.5;entryDx=0;entryDy=0;" parent="WIyWlLk6GJQsqaUBKTNV-1" source="FsYi8NZGnZM2h-i9JEnJ-84" target="FsYi8NZGnZM2h-i9JEnJ-21" edge="1">
          <mxGeometry width="50" height="50" relative="1" as="geometry">
            <mxPoint x="1030" y="950" as="sourcePoint" />
            <mxPoint x="690" y="340" as="targetPoint" />
            <Array as="points">
              <mxPoint x="40" y="765" />
              <mxPoint x="40" y="1480" />
              <mxPoint x="1480" y="1480" />
              <mxPoint x="1480" y="330" />
            </Array>
          </mxGeometry>
        </mxCell>
        <mxCell id="FsYi8NZGnZM2h-i9JEnJ-111" value="No" style="edgeLabel;html=1;align=center;verticalAlign=middle;resizable=0;points=[];fontFamily=Times New Roman;fontColor=#1D3557;labelBorderColor=default;" parent="FsYi8NZGnZM2h-i9JEnJ-109" vertex="1" connectable="0">
          <mxGeometry x="-0.9723" y="-1" relative="1" as="geometry">
            <mxPoint as="offset" />
          </mxGeometry>
        </mxCell>
        <mxCell id="FsYi8NZGnZM2h-i9JEnJ-114" value="Tag为True表示数据累计完成" style="text;html=1;align=center;verticalAlign=middle;resizable=0;points=[];autosize=1;strokeColor=none;fillColor=none;fontFamily=Times New Roman;fontColor=#4D4D4D;fontStyle=0;labelBackgroundColor=#FFFFCC;labelBorderColor=#B3FF66;" parent="WIyWlLk6GJQsqaUBKTNV-1" vertex="1">
          <mxGeometry x="893" y="755" width="160" height="20" as="geometry" />
        </mxCell>
        <mxCell id="FsYi8NZGnZM2h-i9JEnJ-115" value="空滤、精滤、粗滤" style="text;html=1;align=center;verticalAlign=middle;resizable=0;points=[];autosize=1;strokeColor=none;fillColor=none;fontFamily=Times New Roman;fontColor=#4D4D4D;fontStyle=0;labelBackgroundColor=#FFFFCC;labelBorderColor=#B3FF66;spacingRight=10;spacingLeft=10;spacing=2;" parent="WIyWlLk6GJQsqaUBKTNV-1" vertex="1">
          <mxGeometry x="644" y="215" width="140" height="20" as="geometry" />
        </mxCell>
        <mxCell id="FsYi8NZGnZM2h-i9JEnJ-116" value="读取最新的小批量数据" style="text;html=1;align=center;verticalAlign=middle;resizable=0;points=[];autosize=1;strokeColor=none;fillColor=none;fontFamily=Times New Roman;fontColor=#4D4D4D;fontStyle=0;labelBackgroundColor=#FFFFCC;labelBorderColor=#B3FF66;spacingRight=10;spacingLeft=10;spacing=2;" parent="WIyWlLk6GJQsqaUBKTNV-1" vertex="1">
          <mxGeometry x="399" y="410" width="160" height="20" as="geometry" />
        </mxCell>
        <mxCell id="FsYi8NZGnZM2h-i9JEnJ-117" value="3000公里的数据累计阶段" style="text;html=1;align=center;verticalAlign=middle;resizable=0;points=[];autosize=1;strokeColor=none;fillColor=none;fontFamily=Times New Roman;fontColor=#4D4D4D;fontStyle=0;labelBackgroundColor=#FFFFCC;labelBorderColor=#B3FF66;" parent="WIyWlLk6GJQsqaUBKTNV-1" vertex="1">
          <mxGeometry x="799" y="920" width="150" height="20" as="geometry" />
        </mxCell>
        <mxCell id="FsYi8NZGnZM2h-i9JEnJ-118" value="累计公里数新增100" style="text;html=1;align=center;verticalAlign=middle;resizable=0;points=[];autosize=1;strokeColor=none;fillColor=none;fontFamily=Times New Roman;fontColor=#4D4D4D;fontStyle=0;labelBackgroundColor=#FFFFCC;labelBorderColor=#B3FF66;" parent="WIyWlLk6GJQsqaUBKTNV-1" vertex="1">
          <mxGeometry x="335" y="810" width="120" height="20" as="geometry" />
        </mxCell>
        <mxCell id="FsYi8NZGnZM2h-i9JEnJ-119" value="多辆车" style="text;html=1;align=center;verticalAlign=middle;resizable=0;points=[];autosize=1;strokeColor=none;fillColor=none;fontFamily=Times New Roman;fontColor=#4D4D4D;fontStyle=0;labelBackgroundColor=#FFFFCC;labelBorderColor=#B3FF66;spacingRight=10;spacingLeft=10;spacing=2;" parent="WIyWlLk6GJQsqaUBKTNV-1" vertex="1">
          <mxGeometry x="655.25" y="300" width="80" height="20" as="geometry" />
        </mxCell>
        <mxCell id="FsYi8NZGnZM2h-i9JEnJ-120" value="累计公里数除以100后取整数部分" style="text;html=1;align=center;verticalAlign=middle;resizable=0;points=[];autosize=1;strokeColor=none;fillColor=none;fontFamily=Times New Roman;fontColor=#4D4D4D;fontStyle=0;labelBackgroundColor=#FFFFCC;labelBorderColor=#B3FF66;" parent="WIyWlLk6GJQsqaUBKTNV-1" vertex="1">
          <mxGeometry x="921.75" y="1120" width="190" height="20" as="geometry" />
        </mxCell>
      </root>
    </mxGraphModel>
  </diagram>
</mxfile>
